<?xml version="1.0" encoding="UTF-8"?>
<svg xmlns="http://www.w3.org/2000/svg" version="1.1" viewBox="0 0 512 512">
  <!-- Generator: Adobe Illustrator 28.6.0, SVG Export Plug-In . SVG Version: 1.2.0 Build 709)  -->
  <g>
    <g id="Calque_1">
      <g id="Calque_1-2" data-name="Calque_1">
        <path d="M224.5,32v371.4l-137.8-137.8c-12.4-12.4-32.6-12.4-45,0s-12.4,32.6,0,45l192.1,192.1h0c1.5,1.5,3.1,2.8,4.9,4,.7.5,1.4.8,2.1,1.2,1.1.6,2.2,1.3,3.4,1.8.9.4,1.8.6,2.7.8,1.1.3,2.1.7,3.2,1,1.5.3,3,.4,4.6.5.6,0,1.1.2,1.6.2s1.1,0,1.6-.2c1.5,0,3,0,4.4-.4h.1c1.1-.2,2.2-.6,3.3-1,.9-.3,1.8-.5,2.6-.8,1.2-.5,2.4-1.2,3.5-1.9.6-.4,1.3-.6,1.9-1.1,1.8-1.2,3.4-2.5,4.9-4l192.4-192.1c6.2-6.2,9.3-14.4,9.3-22.5s-3.1-16.3-9.3-22.5c-12.4-12.4-32.6-12.4-45,0l-137.8,137.8V32c0-17.6-14.3-31.8-31.9-31.8s-31.8,14.3-31.8,31.8Z"/>
      </g>
    </g>
  </g>
</svg>