<?xml version="1.0" encoding="UTF-8"?>
<svg xmlns="http://www.w3.org/2000/svg" version="1.1" viewBox="0 0 512 512">
  <!-- Generator: Adobe Illustrator 28.7.1, SVG Export Plug-In . SVG Version: 1.2.0 Build 142)  -->
  <g>
    <g id="Calque_1">
      <g id="Calque_1-2" data-name="Calque_1">
        <path d="M489.7,233.9H76.1l96.4-96.4c8.7-8.7,8.7-22.8,0-31.5s-22.8-8.7-31.5,0L6.6,240.4h0c-1,1-2,2.2-2.8,3.4-.3.5-.6,1-.8,1.5-.4.8-.9,1.5-1.3,2.4-.3.6-.4,1.3-.6,1.9-.2.8-.5,1.5-.7,2.2-.2,1-.3,2.1-.3,3.2,0,.4-.1.8-.1,1.1s0,.8.1,1.1c0,1,0,2.1.3,3.1H.4c.1.8.4,1.6.7,2.4.2.6.3,1.3.6,1.8.3.8.8,1.7,1.3,2.4.3.4.4.9.8,1.3.8,1.3,1.7,2.4,2.8,3.4l134.5,134.7c4.3,4.3,10.1,6.5,15.7,6.5s11.4-2.2,15.7-6.5c8.7-8.7,8.7-22.8,0-31.5l-96.4-96.4h413.7c12.3,0,22.3-10,22.3-22.3s-10-22.3-22.3-22.3Z"/>
      </g>
    </g>
  </g>
</svg>