<?xml version="1.0" encoding="UTF-8"?>
<svg id="Calque_1" xmlns="http://www.w3.org/2000/svg" version="1.1" viewBox="0 0 512 512">
  <!-- Generator: Adobe Illustrator 29.3.1, SVG Export Plug-In . SVG Version: 2.1.0 Build 151)  -->
  <defs>
    <style>
      .st0 {
        fill-rule: evenodd;
      }
    </style>
  </defs>
  <path class="st0" d="M435,53.9h-.2s-51.8-41.4-51.8-41.4c-10.5-7.8-23.1-12.3-36.2-12.7H90.7c-16.6,0-30,13.4-30.1,30v452c0,16.6,13.6,30,30.2,29.9h331.4c16.6,0,30.1-13.5,30.1-30.1V90c-.5-13.9-6.8-27.1-17.3-36.2ZM90.7,481.8V29.8h241v90.4h90.4v-15.2h-75.3V29.8h0c6.2.5,12.2,2.6,17.3,6.1l51.8,41.4c3.5,3.4,5.6,7.9,6.1,12.7l.2,391.7H90.7Z"/>
  <rect x="151" y="180.4" width="210.9" height="15.1"/>
  <rect x="151" y="225.6" width="210.9" height="15.1"/>
  <rect x="151" y="270.8" width="210.9" height="15.1"/>
  <rect x="151" y="316" width="90.4" height="15.1"/>
</svg>