<?xml version="1.0" encoding="UTF-8"?>
<svg xmlns="http://www.w3.org/2000/svg" version="1.1" viewBox="0 0 512 512">
  <!-- Generator: Adobe Illustrator 28.6.0, SVG Export Plug-In . SVG Version: 1.2.0 Build 709)  -->
  <g>
    <g id="Calque_1">
      <path d="M505.1,238.4L274,7.3c-9.3-9.3-25.9-9.3-35.2,0L7.7,238.4c-7.1,7.1-9.3,17.8-5.4,27.2,3.9,9.3,12.9,15.4,23,15.4h26.4v154.8c0,20.4,7.9,39.5,22.3,53.9,14.4,14.4,33.6,22.3,53.9,22.3h256.8c20.4,0,39.5-7.9,53.9-22.3s22.3-33.6,22.3-53.9v-154.8h26.4c10.1,0,19.2-6.1,23-15.4,3.9-9.3,1.7-20-5.4-27.2ZM308.5,462.1h-104.2v-129.1c0-7,2.8-13.8,7.7-18.7,5-5,11.6-7.7,18.7-7.7h51.4c7.1,0,13.7,2.7,18.7,7.8,5,5,7.7,11.6,7.7,18.7v129.1ZM411.2,435.7c0,7.1-2.7,13.7-7.8,18.7-5,5-11.6,7.8-18.7,7.8h-26.4v-129.1c0-20.4-7.9-39.5-22.3-53.9-14.4-14.4-33.6-22.4-54-22.4h-51.4c-20.4,0-39.5,7.9-53.9,22.3-14.4,14.4-22.3,33.6-22.3,53.9v129.1h-26.4c-6.9,0-13.8-2.8-18.7-7.8-5-5-7.7-11.6-7.7-18.7v-179.7c0-.6,0-1.2,0-1.8,0-.1,0-.3,0-.4,0-.6-.1-1.2-.2-1.7,0-.1,0-.2,0-.3,0-.5-.2-1-.3-1.5,0,0,0-.2,0-.3-.1-.5-.3-1.1-.5-1.6,0-.1,0-.3-.1-.4-.2-.5-.4-1.1-.6-1.6,0,0,0-.2-.1-.2-.2-.5-.4-.9-.6-1.3,0-.1-.1-.3-.2-.4-.3-.5-.5-.9-.8-1.4,0-.1-.2-.3-.2-.4-.3-.4-.5-.8-.8-1.2,0,0-.1-.2-.2-.3-.3-.4-.7-.8-1-1.3-.1-.1-.2-.2-.3-.4-.4-.4-.7-.8-1.1-1.2,0,0-.2-.2-.3-.2-.3-.3-.7-.6-1-.9-.1,0-.2-.2-.3-.3-.4-.3-.8-.7-1.3-1-.1,0-.2-.2-.4-.3-.4-.3-.8-.6-1.2-.8,0,0-.1,0-.2-.1-.5-.3-.9-.5-1.4-.8-.1,0-.3-.1-.4-.2-.5-.2-1-.5-1.5-.7-.1,0-.3-.1-.4-.2-.4-.2-.8-.3-1.3-.5-.1,0-.2,0-.3-.1L256.4,60.1l172.1,172.1c0,0-.2,0-.3.1-.4.1-.9.3-1.3.5-.1,0-.3.1-.4.2-.5.2-1,.4-1.4.7-.2,0-.3.2-.4.2-.4.2-.9.5-1.3.7-.1,0-.2.1-.3.2-.4.3-.8.5-1.2.8-.1,0-.3.2-.4.3-.4.3-.8.6-1.2,1-.1,0-.2.2-.3.3-.3.3-.7.6-1,.9,0,0-.2.2-.3.3-.4.4-.7.8-1.1,1.2-.1.1-.2.2-.3.4-.3.4-.7.8-1,1.2,0,0-.1.2-.2.3-.3.4-.5.8-.8,1.2,0,.1-.2.2-.2.4-.3.5-.6.9-.8,1.4,0,.1-.1.3-.2.4-.2.5-.4.9-.7,1.4,0,0,0,.1,0,.2-.2.5-.4,1-.6,1.6,0,.1,0,.3-.1.4-.2.5-.3,1.1-.5,1.6,0,0,0,.2,0,.3-.1.5-.2,1-.3,1.6,0,.1,0,.2,0,.3,0,.6-.2,1.2-.2,1.7,0,.1,0,.3,0,.4,0,.6,0,1.2,0,1.8v179.7Z"/>
    </g>
  </g>
</svg>