<?xml version="1.0" encoding="UTF-8"?>
<svg xmlns="http://www.w3.org/2000/svg" version="1.1" viewBox="0 0 512 512">
  <!-- Generator: Adobe Illustrator 28.6.0, SVG Export Plug-In . SVG Version: 1.2.0 Build 709)  -->
  <g>
    <g id="Calque_1">
      <path d="M171.1,256.1c0-47.1,38.2-85.3,85.3-85.3s85.3,38.2,85.3,85.3-38.2,85.3-85.3,85.3-85.3-38.2-85.3-85.3ZM124.9,256.1c0,72.6,58.9,131.5,131.5,131.5s131.5-58.9,131.5-131.5-58.9-131.5-131.5-131.5-131.5,58.9-131.5,131.5ZM362.3,119.4c0,17,13.7,30.7,30.7,30.7,17,0,30.7-13.7,30.7-30.7,0-17-13.7-30.7-30.7-30.7-17,0-30.7,13.7-30.7,30.7ZM153,464.5c-25-1.1-38.5-5.3-47.5-8.8-12-4.7-20.5-10.2-29.4-19.1-9-9-14.5-17.5-19.1-29.4-3.5-9-7.7-22.6-8.8-47.5-1.2-27-1.5-35.1-1.5-103.5s.3-76.4,1.5-103.5c1.1-25,5.3-38.5,8.8-47.5,4.7-12,10.2-20.5,19.1-29.4,9-9,17.5-14.5,29.4-19.1,9-3.5,22.6-7.7,47.5-8.8,27-1.2,35.1-1.5,103.4-1.5s76.5.3,103.5,1.5c25,1.1,38.5,5.3,47.5,8.8,12,4.6,20.5,10.2,29.4,19.1,9,9,14.5,17.5,19.2,29.4,3.5,9,7.7,22.6,8.8,47.5,1.2,27,1.5,35.1,1.5,103.5s-.2,76.4-1.5,103.5c-1.1,25-5.3,38.5-8.8,47.5-4.7,12-10.2,20.5-19.2,29.4-9,8.9-17.5,14.5-29.4,19.1-9,3.5-22.6,7.7-47.5,8.8-27,1.2-35.1,1.5-103.5,1.5s-76.5-.2-103.4-1.5ZM150.8,1.7c-27.3,1.2-45.9,5.6-62.1,11.9-16.8,6.5-31.1,15.3-45.4,29.5-14.2,14.2-23,28.5-29.5,45.3-6.3,16.3-10.7,34.9-11.9,62.1-1.3,27.3-1.6,36-1.6,105.5s.3,78.2,1.6,105.5c1.2,27.3,5.6,45.9,11.9,62.1,6.5,16.8,15.3,31.1,29.5,45.3,14.2,14.2,28.5,23,45.4,29.5,16.3,6.3,34.9,10.6,62.1,11.9,27.3,1.2,36,1.5,105.5,1.5s78.3-.3,105.5-1.5c27.3-1.2,45.9-5.6,62.1-11.9,16.8-6.6,31.1-15.3,45.4-29.5s23-28.5,29.5-45.3c6.3-16.3,10.7-34.9,11.9-62.1,1.2-27.3,1.5-36,1.5-105.5s-.3-78.2-1.5-105.5c-1.2-27.3-5.6-45.9-11.9-62.1-6.6-16.8-15.3-31.1-29.5-45.3-14.2-14.2-28.5-23-45.3-29.5-16.3-6.3-34.9-10.7-62.1-11.9C334.7.4,325.9.1,256.4.1s-78.3.3-105.6,1.6Z"/>
    </g>
  </g>
</svg>