<?xml version="1.0" encoding="UTF-8"?>
<svg id="Calque_1" xmlns="http://www.w3.org/2000/svg" version="1.1" viewBox="0 0 512 512">
  <!-- Generator: Adobe Illustrator 29.4.0, SVG Export Plug-In . SVG Version: 2.1.0 Build 152)  -->
  <path d="M422.7,467c-14.1,0-25.6-11.5-25.6-25.6v-38.4h-38.4c-14.1,0-25.6-11.5-25.6-25.6s11.5-25.6,25.6-25.6h38.4v-38.4c0-14.1,11.5-25.6,25.6-25.6s25.6,11.5,25.6,25.6v38.4h38.4c14.1,0,25.6,11.5,25.6,25.6s-11.5,25.6-25.6,25.6h-38.4v38.4c0,14.1-11.5,25.6-25.6,25.6h0ZM256.3,454.2H107.9c-31.7,0-49.2,0-65.6-8.4-14.5-7.4-26.1-19-33.6-33.6C.3,395.8.3,378.4.3,346.7v-194.6c0-31.7,0-49.2,8.4-65.6,7.4-14.5,19-26.2,33.6-33.6,16.4-8.4,33.9-8.4,65.6-8.4h297c31.7,0,49.2,0,65.6,8.4,14.5,7.4,26.2,19,33.6,33.6,8.4,16.4,8.4,33.9,8.4,65.6v71.7c0,14.1-11.5,25.6-25.6,25.6s-25.6-11.5-25.6-25.6v-29l-99.7,66.5c-34.2,22.8-53.1,35.4-75.3,40.7-19.5,4.7-40.1,4.7-59.7,0-22.2-5.3-41-17.9-75.2-40.7l-99.7-66.5v151.8c0,22.2,0,36.9,2.8,42.3,2.5,4.8,6.3,8.7,11.2,11.2,5.5,2.8,20.1,2.8,42.3,2.8h148.5c14.1,0,25.6,11.5,25.6,25.6s-11.5,25.6-25.6,25.6h-.2ZM51.6,133.4l128,85.4c30.3,20.2,45.5,30.3,58.8,33.5,11.7,2.8,24.1,2.8,35.8,0,13.3-3.2,28.5-13.3,58.8-33.5l128-85.4c-.2-11.8-.8-19.8-2.7-23.6-2.5-4.9-6.3-8.7-11.2-11.2-5.5-2.8-20.1-2.8-42.3-2.8H107.9c-22.2,0-36.9,0-42.3,2.8-4.8,2.5-8.7,6.3-11.2,11.2-1.9,3.7-2.5,11.8-2.7,23.6h0Z"/>
</svg>