<?xml version="1.0" encoding="UTF-8"?>
<svg xmlns="http://www.w3.org/2000/svg" version="1.1" viewBox="0 0 512 512">
  <!-- Generator: Adobe Illustrator 28.6.0, SVG Export Plug-In . SVG Version: 1.2.0 Build 709)  -->
  <g>
    <g id="Calque_1">
      <path d="M512.4,129.5h0c0-.2,0-.3,0-.4,0-.4,0-.7,0-1.1-.7-42.7-35.7-77.2-78.5-77.2H79C36.1,50.8,1.2,85.3.4,127.9c0,.6,0,1.1,0,1.7v253.2c0,43.3,35.2,78.6,78.6,78.6h354.8c43.3,0,78.6-35.2,78.6-78.6v-253.3s0,0,0,0ZM79,106.6h354.8c8,0,15,4.1,19.1,10.4l-196.5,131L59.9,116.9c4.1-6.2,11.1-10.4,19.1-10.4ZM433.8,405.7H79c-12.6,0-22.8-10.2-22.8-22.8v-201.4l184.8,123.2c4.7,3.1,10.1,4.7,15.5,4.7s10.8-1.6,15.5-4.7l184.8-123.2v201.4c0,12.6-10.2,22.8-22.8,22.8Z"/>
    </g>
  </g>
</svg>