<?xml version="1.0" encoding="UTF-8"?>
<svg id="Calque_1" xmlns="http://www.w3.org/2000/svg" version="1.1" viewBox="0 0 512 512">
  <!-- Generator: Adobe Illustrator 29.4.0, SVG Export Plug-In . SVG Version: 2.1.0 Build 152)  -->
  <path d="M256.5,511.7c-84.7,0-153.6-68.9-153.6-153.6,2.8-50.1,4.2-40.7,12.5-59.8,5.5-12.6,12.6-24.4,21.2-35.1L28.6,36.3c-3.8-7.9-3.2-17.2,1.5-24.7C34.8,4.2,43-.3,51.7-.3h102.4c9.7,0,18.6,5.5,22.9,14.2l79.5,159L336,13.9c4.3-8.7,13.2-14.2,22.9-14.2h102.4c8.8,0,17,4.5,21.6,11.9,4.7,7.4,5.2,16.7,1.5,24.7l-108,226.8c8.6,10.7,15.7,22.5,21.2,35.1,8.3,19.1,12.5,39.2,12.5,59.8,0,84.7-68.9,153.6-153.6,153.6h0ZM167.1,267.5l18,18.2c-20,19.7-30.9,45.4-30.9,72.4,0,56.5,45.9,102.4,102.4,102.4s102.4-45.9,102.4-102.4-11-52.6-30.9-72.4c-19.6-19.4-45-30-71.5-30v-25.6,25.6c-26.5,0-51.9,10.7-71.5,30l-18-18.2ZM295.4,209.6c14.5,3.9,28.4,9.9,41.2,18l84.2-176.7h-46l-79.4,158.7h0ZM92.3,50.9l84.2,176.7c12.9-8.1,26.7-14.1,41.2-18L138.3,50.9h-46Z"/>
</svg>