<?xml version="1.0" encoding="UTF-8"?>
<svg xmlns="http://www.w3.org/2000/svg" version="1.1" viewBox="0 0 512 512">
  <!-- Generator: Adobe Illustrator 28.6.0, SVG Export Plug-In . SVG Version: 1.2.0 Build 709)  -->
  <g>
    <g id="Calque_1">
      <path d="M431.4,512.8c-113.5-6.9-218.9-54.3-298.2-133.6C53.9,300,6.5,194.6-.3,82.7c0-23,8.3-43.2,23.5-58.4C38.3,9.1,58.5.8,79.9.8h108.1c10.7,0,20.4,6.5,24.4,16.5l54.1,135.2c4.8,12,.2,25.6-10.9,32.2l-45.9,27.6c22.5,36.8,53.7,68,90.5,90.5l27.6-45.9c6.6-11,20.3-15.6,32.2-10.9l135.2,54.1c10,4,16.5,13.6,16.5,24.4v108.1c0,21.4-8.3,41.6-23.5,56.8s-35.4,23.5-56.8,23.5ZM79.9,53.3c-7.3,0-14.5,3-19.7,8.2-5.2,5.2-8.1,12.2-8.1,19.7,6,97.5,48,190.8,118.2,261.1,70.2,70.2,163.5,112.2,262.6,118.3,5.9,0,12.8-2.9,18.1-8.2,5.2-5.2,8.2-12.3,8.2-19.7v-90.4l-97.9-39.2-29.1,48.4c-7,11.7-21.9,16-34.1,10-63.5-31.3-115.8-83.6-147.1-147.1-6-12.3-1.7-27.1,10-34.1l48.4-29.1-39.2-97.9h-90.4Z"/>
    </g>
  </g>
</svg>