<?xml version="1.0" encoding="UTF-8"?>
<svg id="Calque_1" xmlns="http://www.w3.org/2000/svg" version="1.1" viewBox="0 0 512 512">
  <!-- Generator: Adobe Illustrator 29.4.0, SVG Export Plug-In . SVG Version: 2.1.0 Build 152)  -->
  <path d="M486.8,422.1H26c-14.1,0-25.6-11.5-25.6-25.6v-128c0-14.1,11.5-25.6,25.6-25.6h128v-128c0-14.1,11.5-25.6,25.6-25.6h153.6c14.1,0,25.6,11.5,25.6,25.6v76.8h128c14.1,0,25.6,11.5,25.6,25.6v179.2c0,14.1-11.5,25.6-25.6,25.6ZM358.8,370.9h102.4v-128h-102.4v128ZM205.2,370.9h102.4v-230.4h-102.4v230.4ZM51.6,370.9h102.4v-76.8H51.6v76.8Z"/>
</svg>