<?xml version="1.0" encoding="UTF-8"?>
<svg xmlns="http://www.w3.org/2000/svg" version="1.1" viewBox="0 0 512 512">
  <!-- Generator: Adobe Illustrator 28.6.0, SVG Export Plug-In . SVG Version: 1.2.0 Build 709)  -->
  <g>
    <g id="Calque_1">
      <g>
        <path d="M411.7,77.4l-18.4,18.1c-7.5,7.3-7.6,19.3-.3,26.8,3.7,3.8,8.6,5.7,13.5,5.7s9.6-1.8,13.3-5.4l18.4-18.1c7.5-7.3,7.6-19.3.3-26.8-7.3-7.5-19.3-7.6-26.8-.3Z"/>
        <path d="M45.7,237.1h-26.3c-10.5,0-19,8.5-19,19s8.5,19,19,19h26.3c10.5,0,19-8.5,19-19s-8.5-19-19-19Z"/>
        <path d="M256.4,68.6c10.5,0,19-8.5,19-19v-25.8c0-10.5-8.5-19-19-19s-19,8.5-19,19v25.8c0,10.5,8.5,19,19,19Z"/>
        <path d="M119.8,122.3c7.3-7.5,7.2-19.5-.3-26.8l-18.4-18.1c-7.5-7.3-19.5-7.2-26.8.3-7.3,7.5-7.2,19.5.3,26.8l18.4,18.1c3.7,3.6,8.5,5.4,13.3,5.4s9.8-1.9,13.5-5.7Z"/>
        <path d="M493.4,237.1h-26.3c-10.5,0-19,8.5-19,19s8.5,19,19,19h26.3c10.5,0,19-8.5,19-19s-8.5-19-19-19Z"/>
        <path d="M344.3,135.9c-25.8-18.2-56.2-27.8-87.9-27.8s-62.2,9.6-87.9,27.8c-25.9,18.3-44.9,43.6-54.9,73.3-10.1,29.7-10.4,61.2-.9,91.1,9.4,29.4,27.5,54.8,52.4,73.4,5.4,5.4,9.9,11.7,13.3,18.5.2.6.6,1.2.9,1.7,1.1,2.3,2.1,4.7,2.9,7.1,3.6,10.5,4.6,21.9,2.9,32.9-.1.9-.2,1.9-.2,2.8,0,18.7,7.7,36.9,21.1,50,13.5,13.2,31.5,20.5,50.5,20.5s37-7.3,50.5-20.5c13.4-13.2,21.1-31.4,21.1-50s0-1.9-.2-2.8c-1.7-11-.6-22.3,2.9-32.9.8-2.4,1.8-4.7,2.8-7,.3-.6.7-1.2.9-1.8,3.4-6.8,7.9-13.1,13.2-18.5,24.9-18.7,43-44,52.4-73.4,9.5-29.9,9.2-61.4-.9-91.1-10.1-29.7-29.1-55-54.9-73.3ZM280.4,459.8c-12.6,12.3-35.4,12.3-48,0-6-5.9-9.4-13.6-9.7-21.8,1.5-11.2,1.1-22.7-1-33.9h69.3c-2,11.2-2.5,22.6-1,33.9-.3,8.2-3.7,15.9-9.7,21.8ZM364,288.8c-7.1,22.2-20.9,41.3-39.9,55.3-.7.5-1.3,1.1-2,1.7-6.3,6.1-11.8,13-16.5,20.5h-98.6c-4.7-7.4-10.2-14.3-16.5-20.5-.6-.6-1.3-1.1-2-1.7-19-14-32.8-33.1-39.9-55.3-7-22.1-6.8-45.4.7-67.4,7.5-22,21.6-40.9,40.9-54.5,19.4-13.7,42.2-20.9,66.1-20.9s46.7,7.2,66.1,20.9c19.3,13.6,33.4,32.5,40.9,54.5,7.5,22,7.7,45.3.7,67.4Z"/>
      </g>
    </g>
  </g>
</svg>