<?xml version="1.0" encoding="UTF-8"?>
<svg xmlns="http://www.w3.org/2000/svg" version="1.1" viewBox="0 0 512 512">
  <!-- Generator: Adobe Illustrator 28.6.0, SVG Export Plug-In . SVG Version: 1.2.0 Build 709)  -->
  <g>
    <g id="Calque_1">
      <g>
        <path d="M506.7,84.7L427.8,5.8c-7.2-7.3-20.1-7.3-27.3,0l-78.9,78.9s0,0,0,0,0,0,0,0L6,400.3c-7.5,7.5-7.5,19.7,0,27.3l78.9,78.9c3.6,3.6,8.5,5.7,13.6,5.7s10-2,13.6-5.7L506.7,111.9c7.5-7.5,7.5-19.7,0-27.3ZM98.6,465.6l-51.6-51.6L335.3,125.6l51.6,51.6L98.6,465.6ZM414.2,149.9l-51.6-51.6,51.6-51.6,51.6,51.6-51.6,51.6Z"/>
        <path d="M124.9,91.3c8.9,0,17.3,3.5,23.6,9.8,6.3,6.3,9.8,14.7,9.8,23.6s8.6,19.3,19.3,19.3,19.3-8.6,19.3-19.3,3.5-17.3,9.7-23.5c6.3-6.3,14.7-9.8,23.6-9.8s19.3-8.6,19.3-19.3-8.6-19.3-19.3-19.3-17.3-3.5-23.6-9.7c-6.2-6.2-9.7-14.8-9.7-23.6S188.1.1,177.5.1s-19.3,8.6-19.3,19.3-3.6,17.4-9.8,23.6c-6.3,6.3-14.7,9.7-23.6,9.7s-19.3,8.6-19.3,19.3,8.6,19.3,19.3,19.3ZM175.7,70.2c.6-.6,1.2-1.2,1.8-1.8.6.6,1.2,1.2,1.8,1.8.6.6,1.2,1.2,1.8,1.8-.6.6-1.2,1.2-1.8,1.8-.6.6-1.2,1.2-1.8,1.8-.6-.6-1.2-1.2-1.8-1.8-.6-.6-1.2-1.2-1.8-1.8.6-.6,1.2-1.2,1.8-1.8Z"/>
        <path d="M493.1,315.7c-8.8,0-17.3-3.6-23.5-9.8-6.3-6.3-9.8-14.7-9.8-23.5s-8.7-19.3-19.3-19.3-19.3,8.6-19.3,19.3-3.5,17.3-9.7,23.5c-6.3,6.3-14.7,9.8-23.6,9.8s-19.3,8.7-19.3,19.3,8.7,19.3,19.3,19.3,17.3,3.5,23.6,9.7c6.3,6.3,9.7,14.7,9.7,23.6s8.7,19.3,19.3,19.3,19.3-8.7,19.3-19.3,3.5-17.3,9.8-23.6c6.2-6.2,14.8-9.7,23.5-9.7s19.3-8.7,19.3-19.3-8.7-19.3-19.3-19.3ZM442.2,336.8c-.6.6-1.2,1.2-1.8,1.8-.6-.6-1.2-1.2-1.8-1.8s-1.2-1.2-1.8-1.8c.6-.6,1.2-1.2,1.8-1.7.6-.6,1.2-1.2,1.7-1.8.6.6,1.2,1.2,1.8,1.8s1.2,1.2,1.8,1.8c-.6.6-1.2,1.2-1.8,1.8Z"/>
      </g>
    </g>
  </g>
</svg>