<?xml version="1.0" encoding="UTF-8"?>
<svg id="Calque_1" xmlns="http://www.w3.org/2000/svg" version="1.1" viewBox="0 0 512 512">
  <!-- Generator: Adobe Illustrator 29.4.0, SVG Export Plug-In . SVG Version: 2.1.0 Build 152)  -->
  <defs>
    <style>
      .st0 {
        fill-rule: evenodd;
      }
    </style>
  </defs>
  <path class="st0" d="M255-.5C113.6-.5-1,114.1-1,255.5S113.6,511.5,255,511.5s256-114.6,256-256S396.4-.5,255-.5ZM424.8,126.3h0c-19.7,11.2-45,22.7-75.4,31.1-8.6-33.9-20.8-62.5-33-85.3-4.9-9.2-9.8-17.4-14.5-24.8,49.8,11.2,93,39.8,122.8,79ZM319,255.5c0,16.6-1.1,32.4-3.1,47.3-19-2.9-39.3-4.6-60.9-4.6s-41.9,1.7-60.9,4.6c-2-14.9-3.1-30.7-3.1-47.3s1.1-32.4,3.1-47.3c19,2.9,39.3,4.6,60.9,4.6s41.9-1.7,60.9-4.6c2,14.9,3.1,30.7,3.1,47.3ZM255,54.2c6.8,9.3,15.3,22.1,23.8,38,10.6,19.9,21.2,44.7,28.9,74.1-16.5,2.5-34.1,3.9-52.7,3.9s-36.2-1.5-52.7-3.9c7.7-29.4,18.3-54.2,28.9-74.1,8.5-16,16.9-28.7,23.8-38ZM207.9,47.5c-4.7,7.3-9.6,15.6-14.5,24.8-12.2,22.9-24.4,51.4-33,85.2,0,0,0,0,0,0h-.1c0,0,0,0,0,0-30.4-8.4-55.5-19.9-75.3-31,29.9-39.3,73.1-67.9,122.8-79ZM62.9,348.2c-13.5-28-21.1-59.5-21.1-92.7s7.6-64.7,21.1-92.7c23.2,13.2,53.2,26.9,89.4,36.6-2.5,17.6-3.9,36.3-3.9,56.1s1.4,38.5,3.9,56.1c-36.2,9.7-66.2,23.4-89.4,36.6ZM85.2,384.7c19.7-11.1,45-22.6,75.4-31,8.6,33.9,20.8,62.4,33,85.3h0c4.9,9.1,9.8,17.3,14.5,24.7-49.8-11.2-93-39.8-122.8-79ZM255,456.8c-6.9-9.3-15.3-22-23.8-38-10.6-19.9-21.2-44.7-28.9-74.1,16.5-2.4,34.1-3.9,52.7-3.9s36.2,1.4,52.7,3.9c-7.7,29.4-18.3,54.2-28.9,74.1-8.5,15.9-17,28.7-23.8,38ZM302,463.6c4.7-7.4,9.6-15.6,14.5-24.8,12.2-22.8,24.4-51.4,33-85.3h0c30.4,8.5,55.7,20,75.4,31.1-29.9,39.2-73.1,67.8-122.9,79ZM357.8,311.6c2.5-17.6,3.9-36.3,3.9-56.1s-1.4-38.5-3.9-56.1c36.2-9.7,66.2-23.4,89.4-36.6,13.5,28,21.1,59.5,21.1,92.7s-7.6,64.7-21.1,92.7c-23.2-13.2-53.2-26.9-89.4-36.6Z"/>
</svg>