<?xml version="1.0" encoding="UTF-8"?>
<svg xmlns="http://www.w3.org/2000/svg" version="1.1" viewBox="0 0 93 43">
  <defs>
    <style>
      .cls-1 {
        fill: #f55c48;
      }
    </style>
  </defs>
  <!-- Generator: Adobe Illustrator 28.7.1, SVG Export Plug-In . SVG Version: 1.2.0 Build 142)  -->
  <g>
    <g id="Calque_1">
      <g>
        <path class="cls-1" d="M19.5,11.3c-1.8-1.1-4-1.6-6.3-1.6s-4.4.5-6.3,1.6c-1.9,1.1-3.4,2.6-4.6,4.6-1.1,2-1.7,4.6-1.7,7s.5,4.6,1.6,6.5c1.1,1.9,2.6,3.3,4.5,4.4,1.9,1.1,4.1,1.6,6.5,1.6s3.1-.2,4.4-.5c1.3-.4,2.5-1,3.6-1.8,1.1-.8,2.1-2,3.1-3.4.4-.4.3-.7,0-.9l-3.4-1.4c-.2-.1-.5-.1-.5-.1,0,0-.2.1-.3.2-1,1.1-1.9,1.9-2.9,2.4s-2,.7-3.1.7-2.2-.2-3.1-.7c-.9-.5-1.6-1.2-2.2-2.1-.5-.9-.8-1.9-.8-3.1h.4c0-.3.1-.5.1-.6,0-.2.2-.2.4-.2h15.9c.4,0,.7-.1.7-.3h0v-.8c0-2.8-.5-5.2-1.6-7.1-1.1-1.9-2.5-3.4-4.3-4.4ZM18,20.1H7.8c0-1.1.3-2.1.7-3,.5-.9,1.1-1.6,1.9-2.1.9-.5,1.7-.7,2.8-.7s2,.2,2.7.8c.7.5,1.3,1.2,1.6,2,.4.8.6,1.6.6,2.4s0,.6,0,.6Z"/>
        <path class="cls-1" d="M49,.4h-5.7c-.5,0-.7.2-.7.8v10.7c0,.3,0,.6-.2.6-.2,0-.4,0-.6-.2-.9-.9-1.8-1.5-2.8-1.9-.9-.4-1.5-.6-3.3-.6s-3.5.5-5.1,1.6c-1.5,1.1-2.8,2.6-3.7,4.6-.9,1.9-1.4,4-1.4,6.8s.5,5.2,1.3,7.1c.9,1.9,2.1,3.3,3.5,4.2,1.4.9,3.1,1.4,5,1.4s2.1,0,2.9-.4c.8-.3,1.6-.7,2.2-1.1.6-.5,1.2-.9,1.7-1.4.2-.2.4-.2.5-.2.2,0,.2.2.2.4v1.3c0,.3.1.5.3.7.2.2.5.2.7.2h4.9c.4,0,.6,0,.8-.2.2,0,.2-.4.2-.7V1.3c0-.6-.2-.9-.7-.9ZM42.7,16.8v10.2c0,.7-.2,1.4-.6,2-.4.6-.9,1.1-1.6,1.5-.6.4-1.2.6-2.3.6s-2-.3-2.8-.8c-.8-.6-1.4-1.5-1.9-2.7-.5-1.2-.7-2.8-.7-4.8s.3-3.6.7-4.8c.5-1.3,1.1-2.1,1.9-2.7.8-.6,1.9-.9,2.8-.9s1.7.2,2.4.6c.7.4,1.4,1,2.1,1.7h0Z"/>
        <path class="cls-1" d="M91,15.2c-.8-1.9-2-3.3-3.4-4.2-1.4-.9-3.1-1.4-4.9-1.4s-2.2.2-3,.5c-.8.3-1.6.7-2.2,1.1-.6.5-1.1.9-1.6,1.4s-.4.2-.5.2,0,0-.1,0v-1.6c0-.7-.3-1-1-1h-5c-.3,0-.5,0-.6.1-.2,0-.3.1-.5.3-.2.1-.2.4-.2.7v16.4c-.7.8-1.4,1.4-2.3,1.9-.8.5-1.7.7-2.7.7h0c-1,.1-1.8-.2-2.4-.8-.5-.6-.8-1.5-.8-2.5v-15.7c0-.7-.3-1-.9-1h-5.2c-.7,0-1.1.4-1.1,1.1v16.3c0,1.6.3,2.9.9,4.1s1.4,2,2.5,2.6c1.1.6,2.2.9,3.7.9s2.8-.2,4.1-.8,2.6-1.6,3.9-2.9c.1,0,.2,0,.3,0v10.3c0,.5.2.8.7.8h5.7c.5,0,.7-.3.7-.8v-7.1c.1-.1.2-.3.2-.6v-1.5c.2,0,.4.1.7.4.9.8,1.9,1.4,2.9,1.8,1.1.4,1.5.6,3.4.6s3.6-.5,5.1-1.4,2.7-2.4,3.6-4.3c.9-2,1.3-4.5,1.3-7.4s-.5-5.3-1.3-7.1ZM84.4,27.4c-.5,1.3-1.1,2.2-1.9,2.8-.8.5-1.8.8-2.8.8s-1.8-.3-2.5-.7c-.7-.5-1.3-1-1.9-1.6v-11.2c0-.4.3-.7.5-1.1.4-.6.9-1.1,1.6-1.4.7-.4,1.4-.6,2.4-.6s1.9.2,2.7.7,1.5,1.3,1.9,2.5c.5,1.2.7,2.8.7,4.8s-.3,3.7-.7,5Z"/>
      </g>
    </g>
  </g>
</svg>