<?xml version="1.0" encoding="UTF-8"?>
<svg xmlns="http://www.w3.org/2000/svg" version="1.1" viewBox="0 0 93 43">
  <defs>
    <style>
      .cls-1 {
        fill: #fff;
      }

      .cls-2 {
        fill: #f55c48;
      }
    </style>
  </defs>
  <!-- Generator: Adobe Illustrator 28.7.1, SVG Export Plug-In . SVG Version: 1.2.0 Build 142)  -->
  <g>
    <g id="Calque_1">
      <path class="cls-1" d="M7.9,24.7c0,1.2.3,2.2.8,3.1.6.9,1.3,1.6,2.2,2.1.9.5,2,.7,3.1.7s2.1-.2,3.1-.7c1-.5,1.9-1.3,2.9-2.4.1-.1.2-.2.3-.2,0,0,.3,0,.5.1l3.4,1.4c.4.2.5.5.1.9-1,1.4-2,2.6-3.1,3.4s-2.3,1.4-3.6,1.8c-1.3.3-2.8.5-4.4.5-2.4,0-4.6-.5-6.5-1.6-1.9-1.1-3.4-2.5-4.5-4.4-1.1-1.9-1.6-4.1-1.6-6.5s.6-5,1.7-7c1.2-2,2.7-3.5,4.6-4.6,1.9-1.1,4-1.6,6.3-1.6s4.5.5,6.3,1.6c1.8,1,3.2,2.5,4.3,4.4,1.1,1.9,1.6,4.3,1.6,7.1s0,.6,0,.8c0,.2-.3.3-.7.3h-15.9c-.2,0-.3,0-.4.2,0,.1-.1.3-.1.6ZM17.3,20.1c.3,0,.6,0,.7,0,0,0,.1-.3.1-.6,0-.8-.2-1.6-.6-2.4-.3-.8-.9-1.5-1.6-2-.7-.6-1.6-.8-2.7-.8s-1.9.2-2.8.7c-.8.5-1.4,1.2-1.9,2.1-.4.9-.7,1.9-.7,3h9.3ZM43.8,35c-.2,0-.5,0-.7-.2-.2-.2-.3-.4-.3-.7v-1.3c0-.2,0-.3-.2-.4-.1,0-.3,0-.5.2-.5.5-1.1.9-1.7,1.4-.6.4-1.4.8-2.2,1.1-.8.3-1.8.4-2.9.4-1.9,0-3.6-.5-5-1.4s-2.6-2.3-3.5-4.2c-.8-1.9-1.3-4.3-1.3-7.1s.5-4.9,1.4-6.8c.9-2,2.2-3.5,3.7-4.6,1.6-1.1,3.3-1.6,5.1-1.6s2.4.2,3.3.6c1,.4,1.9,1,2.8,1.9.2.2.4.3.6.2.2,0,.2-.3.2-.6V1.2c0-.6.2-.8.7-.8h5.7c.5,0,.7.3.7.9v32.8c0,.3,0,.6-.2.7-.2.2-.4.2-.8.2h-5ZM42.7,16.7c-.7-.7-1.4-1.3-2.1-1.7-.7-.4-1.5-.6-2.4-.6s-2,.3-2.8.9c-.8.6-1.4,1.4-1.9,2.7-.4,1.2-.7,2.8-.7,4.8s.2,3.6.7,4.8c.5,1.2,1.1,2.1,1.9,2.7.8.5,1.7.8,2.8.8s1.7-.2,2.3-.6c.7-.4,1.2-.9,1.6-1.5.4-.6.6-1.3.6-2v-10.2Z"/>
      <path class="cls-2" d="M63,30.3c1,0,1.9-.2,2.7-.7.9-.5,1.7-1.2,2.4-2V11.3c0-.7.4-1.1,1.2-1.1h5c.7,0,1,.3,1,1v22.9c0,.6-.3.8-.8.8h-5.6c-.5,0-.7-.3-.7-.8v-2.3c0-.2,0-.3-.1-.3,0,0-.2,0-.4.1-1.3,1.3-2.6,2.3-3.9,2.9-1.3.6-2.6.8-4.1.8s-2.6-.3-3.7-.9c-1.1-.6-1.9-1.4-2.5-2.6-.6-1.2-.9-2.5-.9-4.1V11.4c0-.7.4-1.1,1.1-1.1h5.2c.6,0,.9.3.9,1v15.7c0,1,.3,1.9.8,2.5.6.6,1.4.9,2.4.9ZM74.2,10.2c.7,0,1,.3,1,.9v1.4c0,.2,0,.3.2.3.1,0,.3,0,.5-.2.5-.5,1-.9,1.6-1.4.6-.4,1.4-.8,2.2-1.1.8-.3,1.8-.5,3-.5,1.8,0,3.5.5,4.9,1.4,1.4.9,2.6,2.3,3.4,4.2.8,1.8,1.3,4.2,1.3,7.1s-.4,5.4-1.3,7.4c-.9,1.9-2.1,3.4-3.6,4.3-1.5.9-3.2,1.4-5.1,1.4s-2.3-.2-3.4-.6c-1-.4-2-1-2.9-1.8-.3-.3-.5-.5-.7-.4-.1,0-.2.3-.2.7v8.5c0,.5-.2.8-.7.8h-5.7c-.5,0-.7-.3-.7-.8V11.3c0-.3,0-.6.2-.7.2-.2.4-.3.8-.3h5.1ZM75.2,28.6c.6.7,1.3,1.2,2,1.7.7.4,1.5.7,2.5.7s2-.3,2.8-.8c.8-.6,1.4-1.5,1.9-2.8.4-1.3.7-3,.7-5s-.2-3.6-.7-4.8c-.4-1.2-1.1-2-1.9-2.5-.8-.5-1.7-.7-2.7-.7s-1.7.2-2.4.6c-.7.3-1.2.8-1.6,1.4-.4.6-.6,1.2-.6,1.8v10.6Z"/>
    </g>
  </g>
</svg>